<?xml version="1.0" standalone="no"?>
<!DOCTYPE svg PUBLIC "-//W3C//DTD SVG 20010904//EN"
 "http://www.w3.org/TR/2001/REC-SVG-20010904/DTD/svg10.dtd">
<svg version="1.0" xmlns="http://www.w3.org/2000/svg"
 width="512.000000pt" height="512.000000pt" viewBox="0 0 512.000000 512.000000"
 preserveAspectRatio="xMidYMid meet">
<metadata>
Created by potrace 1.14, written by Peter Selinger 2001-2017
</metadata>
<g transform="translate(0.000000,512.000000) scale(0.100000,-0.100000)"
fill="#000000" stroke="none">
<path d="M1325 5105 c-43 -19 -94 -71 -112 -113 -10 -22 -17 -70 -17 -119 -1
-45 -4 -85 -7 -87 -3 -3 -176 -7 -385 -8 l-379 -3 -56 -28 c-72 -36 -128 -92
-165 -164 l-29 -58 0 -1705 0 -1705 33 -67 c28 -57 62 -97 128 -148 6 -4 33
-16 60 -26 46 -17 118 -18 1039 -20 545 -1 1000 -3 1013 -3 12 -1 22 -7 22
-15 0 -8 24 -63 54 -123 142 -283 372 -498 661 -618 39 -16 120 -43 140 -46 6
-1 19 -5 31 -9 11 -5 36 -11 55 -14 19 -3 45 -8 59 -12 56 -13 336 -12 415 2
524 94 929 489 1042 1015 25 117 25 380 0 499 -46 213 -141 412 -269 562 l-48
56 0 1170 c0 1111 -1 1172 -19 1225 -22 69 -72 135 -131 176 -82 56 -109 60
-355 60 -124 1 -291 1 -373 1 l-148 0 2 68 c5 164 -65 257 -205 269 -63 6
-104 -9 -154 -56 -52 -48 -69 -95 -69 -193 l-1 -88 -31 0 c-97 0 -1188 -1
-1333 0 l-172 0 1 88 c0 102 -18 148 -76 200 -57 50 -155 66 -221 37z"/>
</g>
</svg>
